<svg xmlns="http://www.w3.org/2000/svg" xmlns:xlink="http://www.w3.org/1999/xlink" width="1920" zoomAndPan="magnify" viewBox="0 0 1440 809.999993" height="1080" preserveAspectRatio="xMidYMid meet" version="1.2"><defs/><g id="a65e375a65"><g style="fill:#000000;fill-opacity:1;"><g transform="translate(11.155738, 532.312279)"><path style="stroke:none" d="M 43.953125 0 L 43.953125 -245.25 L 76.546875 -245.25 L 80.796875 -209.328125 C 91.515625 -224.140625 104.507812 -234.851562 119.78125 -241.46875 C 135.0625 -248.082031 150.894531 -251.390625 167.28125 -251.390625 C 200.039062 -251.390625 225.554688 -240.992188 243.828125 -220.203125 C 262.097656 -199.410156 271.234375 -171.53125 271.234375 -136.5625 L 271.234375 0 L 231.546875 0 L 231.546875 -132.78125 C 231.546875 -157.664062 225.320312 -177.351562 212.875 -191.84375 C 200.425781 -206.332031 183.492188 -213.578125 162.078125 -213.578125 C 146.953125 -213.578125 133.484375 -209.875 121.671875 -202.46875 C 109.859375 -195.070312 100.566406 -184.597656 93.796875 -171.046875 C 87.023438 -157.503906 83.640625 -141.753906 83.640625 -123.796875 L 83.640625 0 Z M 43.953125 0 "/></g></g><g style="fill:#000000;fill-opacity:1;"><g transform="translate(321.598621, 532.312279)"><path style="stroke:none" d="M 150.265625 6.140625 C 125.691406 6.140625 103.953125 0.707031 85.046875 -10.15625 C 66.148438 -21.03125 51.347656 -36.234375 40.640625 -55.765625 C 29.929688 -75.296875 24.578125 -97.660156 24.578125 -122.859375 C 24.578125 -148.054688 29.929688 -170.34375 40.640625 -189.71875 C 51.347656 -209.09375 66.226562 -224.210938 85.28125 -235.078125 C 104.34375 -245.953125 126.160156 -251.390625 150.734375 -251.390625 C 176.878906 -251.390625 199.5625 -245.242188 218.78125 -232.953125 C 238 -220.671875 252.726562 -203.738281 262.96875 -182.15625 C 273.207031 -160.582031 277.851562 -135.460938 276.90625 -106.796875 L 64.734375 -106.796875 C 67.890625 -83.796875 77.179688 -65.441406 92.609375 -51.734375 C 108.046875 -38.035156 127.421875 -31.1875 150.734375 -31.1875 C 166.804688 -31.1875 181.457031 -34.648438 194.6875 -41.578125 C 207.914062 -48.515625 218.3125 -58.441406 225.875 -71.359375 L 270.765625 -71.359375 C 260.992188 -47.410156 245.394531 -28.503906 223.96875 -14.640625 C 202.550781 -0.785156 177.984375 6.140625 150.265625 6.140625 Z M 65.203125 -141.765625 L 237.203125 -141.765625 C 233.109375 -164.128906 223.265625 -181.769531 207.671875 -194.6875 C 192.078125 -207.601562 173.097656 -214.0625 150.734375 -214.0625 C 128.054688 -214.0625 109 -207.441406 93.5625 -194.203125 C 78.125 -180.972656 68.671875 -163.492188 65.203125 -141.765625 Z M 65.203125 -141.765625 "/></g></g><g style="fill:#000000;fill-opacity:1;"><g transform="translate(609.832803, 532.312279)"><path style="stroke:none" d="M 16.0625 0 L 110.09375 -124.75 L 20.796875 -245.25 L 68.515625 -245.25 L 106.796875 -193.265625 L 136.09375 -152.625 L 165.859375 -193.265625 L 204.140625 -245.25 L 251.390625 -245.25 L 162.078125 -124.75 L 256.109375 0 L 207.90625 0 L 166.328125 -55.765625 L 136.5625 -96.875 L 106.3125 -55.765625 L 64.265625 0 Z M 16.0625 0 "/></g></g><g style="fill:#000000;fill-opacity:1;"><g transform="translate(870.188612, 532.312279)"><path style="stroke:none" d="M 150.265625 6.140625 C 125.691406 6.140625 103.953125 0.707031 85.046875 -10.15625 C 66.148438 -21.03125 51.347656 -36.234375 40.640625 -55.765625 C 29.929688 -75.296875 24.578125 -97.660156 24.578125 -122.859375 C 24.578125 -148.054688 29.929688 -170.34375 40.640625 -189.71875 C 51.347656 -209.09375 66.226562 -224.210938 85.28125 -235.078125 C 104.34375 -245.953125 126.160156 -251.390625 150.734375 -251.390625 C 176.878906 -251.390625 199.5625 -245.242188 218.78125 -232.953125 C 238 -220.671875 252.726562 -203.738281 262.96875 -182.15625 C 273.207031 -160.582031 277.851562 -135.460938 276.90625 -106.796875 L 64.734375 -106.796875 C 67.890625 -83.796875 77.179688 -65.441406 92.609375 -51.734375 C 108.046875 -38.035156 127.421875 -31.1875 150.734375 -31.1875 C 166.804688 -31.1875 181.457031 -34.648438 194.6875 -41.578125 C 207.914062 -48.515625 218.3125 -58.441406 225.875 -71.359375 L 270.765625 -71.359375 C 260.992188 -47.410156 245.394531 -28.503906 223.96875 -14.640625 C 202.550781 -0.785156 177.984375 6.140625 150.265625 6.140625 Z M 65.203125 -141.765625 L 237.203125 -141.765625 C 233.109375 -164.128906 223.265625 -181.769531 207.671875 -194.6875 C 192.078125 -207.601562 173.097656 -214.0625 150.734375 -214.0625 C 128.054688 -214.0625 109 -207.441406 93.5625 -194.203125 C 78.125 -180.972656 68.671875 -163.492188 65.203125 -141.765625 Z M 65.203125 -141.765625 "/></g></g><g style="fill:#000000;fill-opacity:1;"><g transform="translate(1170.708669, 532.312279)"><path style="stroke:none" d="M 132.78125 6.140625 C 100.644531 6.140625 74.890625 -1.492188 55.515625 -16.765625 C 36.148438 -32.046875 26.148438 -52.128906 25.515625 -77.015625 L 64.734375 -77.015625 C 65.367188 -62.210938 71.671875 -50.554688 83.640625 -42.046875 C 95.609375 -33.546875 112.144531 -29.296875 133.25 -29.296875 C 151.84375 -29.296875 166.492188 -32.523438 177.203125 -38.984375 C 187.910156 -45.441406 193.265625 -54.179688 193.265625 -65.203125 C 193.265625 -76.234375 187.671875 -85.210938 176.484375 -92.140625 C 165.304688 -99.078125 147.742188 -104.59375 123.796875 -108.6875 C 92.296875 -114.039062 68.90625 -122.703125 53.625 -134.671875 C 38.351562 -146.640625 30.71875 -162.234375 30.71875 -181.453125 C 30.71875 -203.503906 39.144531 -220.671875 56 -232.953125 C 72.851562 -245.242188 96.082031 -251.390625 125.6875 -251.390625 C 155.9375 -251.390625 180.113281 -244.691406 198.21875 -231.296875 C 216.332031 -217.910156 226.179688 -199.09375 227.765625 -174.84375 L 188.546875 -174.84375 C 187.285156 -188.382812 181.21875 -198.695312 170.34375 -205.78125 C 159.476562 -212.875 144.753906 -216.421875 126.171875 -216.421875 C 108.523438 -216.421875 94.738281 -213.347656 84.8125 -207.203125 C 74.894531 -201.054688 69.9375 -192.472656 69.9375 -181.453125 C 69.9375 -171.054688 74.972656 -162.941406 85.046875 -157.109375 C 95.128906 -151.285156 112.929688 -145.851562 138.453125 -140.8125 C 201.140625 -128.53125 232.484375 -103.015625 232.484375 -64.265625 C 232.484375 -43.160156 223.425781 -26.148438 205.3125 -13.234375 C 187.195312 -0.316406 163.019531 6.140625 132.78125 6.140625 Z M 132.78125 6.140625 "/></g></g></g></svg>